<?xml version="1.0" encoding="UTF-8"?>
<svg version="1.1" xmlns="http://www.w3.org/2000/svg" width="595" height="419">
<path d="M0 0 C2.66796875 1.27734375 2.66796875 1.27734375 5.1875 2.9375 C7.86316614 4.67606648 9.96080861 5.9869362 13 7 C13 7.66 13 8.32 13 9 C13.84304688 9.2475 14.68609375 9.495 15.5546875 9.75 C19.33777476 11.12254866 22.67969247 12.95504327 26.125 15 C31.47873498 18.15392815 31.47873498 18.15392815 37 21 C37 21.66 37 22.32 37 23 C38.485 23.495 38.485 23.495 40 24 C40.2286411 30.44054726 40.38597823 36.88004575 40.49438477 43.32373047 C40.53958148 45.51423239 40.60095438 47.70446372 40.67895508 49.89404297 C40.7884506 53.04722768 40.83922919 56.19682056 40.87890625 59.3515625 C40.92535782 60.32678864 40.97180939 61.30201477 41.01966858 62.30679321 C41.02175888 65.13731169 40.91438676 67.31793807 40 70 C37.3112883 72.67159895 34.36365343 74.30321753 31 76 C29.614658 76.82213961 28.23353167 77.65148574 26.859375 78.4921875 C25.49124023 79.28930896 24.12141624 80.08353751 22.75 80.875 C18.53339075 83.31443 14.33216668 85.74951992 10.2578125 88.421875 C9.68321289 88.7945752 9.10861328 89.16727539 8.51660156 89.55126953 C6.97993437 90.55636506 5.45436491 91.5783705 3.9296875 92.6015625 C0.33532953 94.31726937 -2.05876794 94.4237394 -6 94 C-8.08984375 93.00390625 -8.08984375 93.00390625 -9.9375 91.5625 C-14.60421232 88.18151454 -19.47603903 85.42359672 -24.53686523 82.68774414 C-25.87301047 81.95340159 -27.1918612 81.1870941 -28.49609375 80.39746094 C-31.12114958 78.86677949 -31.12114958 78.86677949 -34.58203125 77.53222656 C-38.70562791 75.66208391 -42.29593007 73.72472531 -45 70 C-47.25941634 63.46929779 -46.9295399 56.44653759 -46.71533203 49.625 C-46.62486399 46.3701067 -46.67384786 43.13792818 -46.73828125 39.8828125 C-46.73676827 24.9676035 -46.73676827 24.9676035 -42.45776367 20.11987305 C-39.34822114 18.29465926 -36.42465135 17.10387673 -33 16 C-31.7198951 15.32071177 -30.45533771 14.60962572 -29.22265625 13.84765625 C-27.58956098 12.92512901 -25.95639769 12.0027207 -24.32226562 11.08203125 C-21.30589565 9.36781006 -18.34519095 7.60230124 -15.43359375 5.71484375 C-14.5681897 5.1588147 -14.5681897 5.1588147 -13.68530273 4.59155273 C-12.09540734 3.56179432 -10.51608211 2.51576875 -8.9375 1.46875 C-5.56499031 -0.21750485 -3.72119686 -0.50765997 0 0 Z M-3 18 C-3.53367187 18.37511719 -4.06734375 18.75023437 -4.6171875 19.13671875 C-9.46010976 22.46308577 -14.30351774 25.2673072 -19.640625 27.7265625 C-22.37199551 29.20077903 -24.62824462 31.00671623 -27 33 C-25.23043821 34.04382528 -23.45925861 35.08490791 -21.6875 36.125 C-20.12894271 37.0417984 -18.57149513 37.96077149 -17.02807617 38.90283203 C-14.91365868 40.10220134 -14.91365868 40.10220134 -12.16918945 41.09326172 C-8.97274398 42.45306552 -6.58458953 43.66767961 -4 46 C-2.4971019 50.63998626 -2.6385969 55.03595726 -2.8125 59.875 C-2.81443359 61.13570312 -2.81636719 62.39640625 -2.81835938 63.6953125 C-2.83012234 66.80073479 -2.89223223 69.89666983 -3 73 C-1.90619019 72.55503174 -1.90619019 72.55503174 -0.7902832 72.10107422 C0.89712289 71.43520656 2.59576096 70.79577146 4.31176758 70.20751953 C10.61568629 67.97888139 16.84185994 65.42390532 21 60 C23.52115579 51.59400681 23.56828691 40.42123965 21 32 C17.8730458 29.03340243 14.48012873 27.01980807 10.6875 25 C9.73617187 24.49210937 8.78484375 23.98421875 7.8046875 23.4609375 C4.22380004 21.59568415 0.62488488 19.77824541 -3 18 Z " fill="#071D3C" transform="translate(300,130)"/>
<path d="M0 0 C0.66 0 1.32 0 2 0 C2 0.66 2 1.32 2 2 C2.99 2.33 3.98 2.66 5 3 C5.2286411 9.44054726 5.38597823 15.88004575 5.49438477 22.32373047 C5.53958148 24.51423239 5.60095438 26.70446372 5.67895508 28.89404297 C5.7884506 32.04722768 5.83922919 35.19682056 5.87890625 38.3515625 C5.92535782 39.32678864 5.97180939 40.30201477 6.01966858 41.30679321 C6.02175888 44.13731169 5.91438676 46.31793807 5 49 C2.3112883 51.67159895 -0.63634657 53.30321753 -4 55 C-5.385342 55.82213961 -6.76646833 56.65148574 -8.140625 57.4921875 C-9.50875977 58.28930896 -10.87858376 59.08353751 -12.25 59.875 C-16.46660925 62.31443 -20.66783332 64.74951992 -24.7421875 67.421875 C-25.31678711 67.7945752 -25.89138672 68.16727539 -26.48339844 68.55126953 C-28.02006563 69.55636506 -29.54563509 70.5783705 -31.0703125 71.6015625 C-34.58079504 73.27723283 -37.15646505 73.25879163 -41 73 C-41.33 72.34 -41.66 71.68 -42 71 C-40.68 71.33 -39.36 71.66 -38 72 C-38 65.4 -38 58.8 -38 52 C-35.52693359 51.07960938 -35.52693359 51.07960938 -33.00390625 50.140625 C-23.10241497 45.90692569 -23.10241497 45.90692569 -15 39 C-13.10636838 32.97226967 -13.43460187 27.05402697 -14.06665039 20.82714844 C-14.37689161 17.36361642 -14.62756145 14.42426519 -14 11 C-10.15118903 6.99245637 -5.35725978 5.15944786 0 4 C0 2.68 0 1.36 0 0 Z " fill="#E2AB42" transform="translate(335,151)"/>
<path d="M0 0 C2.66796875 1.27734375 2.66796875 1.27734375 5.1875 2.9375 C7.86316614 4.67606648 9.96080861 5.9869362 13 7 C13 7.66 13 8.32 13 9 C14.26263672 9.37318359 14.26263672 9.37318359 15.55078125 9.75390625 C19.33814051 11.12215948 22.72048433 12.92093272 26.1875 14.9375 C26.80302734 15.28490234 27.41855469 15.63230469 28.05273438 15.99023438 C33.92191961 19.36676456 33.92191961 19.36676456 36 22 C36.125 24 36.125 24 35 26 C31.75 27.5625 31.75 27.5625 29.8359375 28.26953125 C27.78545095 29.01171066 27.78545095 29.01171066 25.375 30.75 C23 32 23 32 20.6875 32 C15.72243614 30.15253438 11.41602795 27.01861411 7.1328125 23.9375 C1.82404058 20.03422156 1.82404058 20.03422156 -4.3828125 19.45703125 C-6.7584934 20.79814144 -8.83146126 22.34584161 -11 24 C-12.87928004 25.07124227 -14.77591494 26.11252974 -16.6875 27.125 C-17.55761719 27.60195312 -18.42773438 28.07890625 -19.32421875 28.5703125 C-22.18812446 30.10051613 -25.09573017 31.54786508 -28 33 C-33.28 30.03 -38.56 27.06 -44 24 C-44 39.18 -44 54.36 -44 70 C-44.33 70 -44.66 70 -45 70 C-45.30511801 63.43586926 -45.51471844 56.87357102 -45.65917969 50.30395508 C-45.7194072 48.07148944 -45.80121608 45.83949494 -45.90527344 43.60864258 C-46.74866799 25.05809669 -46.74866799 25.05809669 -42.51928711 20.08032227 C-39.38611143 18.24964515 -36.45604004 17.08066343 -33 16 C-31.71887868 15.32263067 -30.45392869 14.61190046 -29.22265625 13.84765625 C-27.58956098 12.92512901 -25.95639769 12.0027207 -24.32226562 11.08203125 C-21.30589565 9.36781006 -18.34519095 7.60230124 -15.43359375 5.71484375 C-14.5681897 5.1588147 -14.5681897 5.1588147 -13.68530273 4.59155273 C-12.09540734 3.56179432 -10.51608211 2.51576875 -8.9375 1.46875 C-5.56499031 -0.21750485 -3.72119686 -0.50765997 0 0 Z " fill="#CB7D32" transform="translate(300,130)"/>
<path d="M0 0 C3.54243452 1.36591169 6.92627929 2.90931484 10.3125 4.625 C11.63701172 5.29402344 11.63701172 5.29402344 12.98828125 5.9765625 C13.65214844 6.31429687 14.31601562 6.65203125 15 7 C15 7.66 15 8.32 15 9 C16.26263672 9.37318359 16.26263672 9.37318359 17.55078125 9.75390625 C21.33814051 11.12215948 24.72048433 12.92093272 28.1875 14.9375 C29.11079102 15.45860352 29.11079102 15.45860352 30.05273438 15.99023438 C35.92191961 19.36676456 35.92191961 19.36676456 38 22 C38.125 24 38.125 24 37 26 C33.75 27.5625 33.75 27.5625 31.8359375 28.26953125 C29.78545095 29.01171066 29.78545095 29.01171066 27.375 30.75 C25 32 25 32 22.6875 32 C19.62170294 30.8592383 17.16086792 29.39121125 14.46875 27.54296875 C11.91679931 25.86764127 11.91679931 25.86764127 8.59375 24.48828125 C4.74390059 22.62612583 1.96846811 21.09695405 -1 18 C-2.63786233 12.48461254 -1.87792119 6.59520196 -1 1 C-0.67 0.67 -0.34 0.34 0 0 Z " fill="#172A44" transform="translate(298,130)"/>
<path d="M0 0 C0.99 0 1.98 0 3 0 C4.65 3.63 6.3 7.26 8 11 C9.98 7.37 11.96 3.74 14 0 C14.66 0 15.32 0 16 0 C17.77149249 6.9796804 19.47512736 13.96212627 21 21 C20.01 21.33 19.02 21.66 18 22 C15 20 15 20 14.3125 17.375 C14.209375 16.59125 14.10625 15.8075 14 15 C13.01 16.485 13.01 16.485 12 18 C10.5 20.1875 10.5 20.1875 9 22 C8.34 22 7.68 22 7 22 C5.68 19.36 4.36 16.72 3 14 C2.5978125 15.7015625 2.5978125 15.7015625 2.1875 17.4375 C1.795625 18.613125 1.40375 19.78875 1 21 C0.01 21.33 -0.98 21.66 -2 22 C-3 21 -3 21 -3.25 17.75 C-3.20566275 11.67579714 -1.49816829 5.84999048 0 0 Z " fill="#2B2F3A" transform="translate(309,240)"/>
<path d="M0 0 C3.00815661 1.28298191 3.80850308 2.31541627 6 5 C7.36425243 9.26232539 7.50942687 12.69813134 5.875 16.875 C2.65865598 20.52018989 0.32530912 21.88374481 -4.5625 22.3125 C-7.6741181 22.02962563 -9.40937502 21.65799999 -12 20 C-12 19.34 -12 18.68 -12 18 C-12.99 17.67 -13.98 17.34 -15 17 C-15.2236337 15.58566794 -15.42826476 14.16832382 -15.625 12.75 C-15.74101562 11.96109375 -15.85703125 11.1721875 -15.9765625 10.359375 C-16.00319395 7.67847541 -15.36592084 6.27305911 -14 4 C-13.34 4 -12.68 4 -12 4 C-12 3.34 -12 2.68 -12 2 C-7.94779064 -0.70147291 -4.75672036 -0.76172353 0 0 Z M-9.5 6.625 C-11.25114117 8.89390867 -11.25114117 8.89390867 -10.875 11.5625 C-10.03639506 14.20644784 -10.03639506 14.20644784 -8 17 C-4.41642759 17.25015873 -4.41642759 17.25015873 -1 17 C-0.67 16.01 -0.34 15.02 0 14 C0.66 14 1.32 14 2 14 C2 12.02 2 10.04 2 8 C1.34 8 0.68 8 0 8 C0 7.34 0 6.68 0 6 C-4.97546376 4.73563798 -4.97546376 4.73563798 -9.5 6.625 Z " fill="#202530" transform="translate(280,240)"/>
<path d="M0 0 C3.72102468 2.22185151 5.60314575 4.90281473 7.0625 8.9375 C6.98015151 12.9725759 5.98415111 15.49466637 4 19 C1.08028473 21.51419926 -0.65848838 21.96340947 -4.5 22.375 C-9.11902872 21.88010407 -11.46561207 20.42856807 -14.8125 17.3125 C-16.56934427 13.89127695 -16.78220664 10.7048151 -16 7 C-12.17353565 0.40997806 -7.29077209 -1.2844481 0 0 Z M-9.9375 7.125 C-11.21360855 10.57799961 -11.03537149 12.49566574 -10 16 C-6.95699684 17.52150158 -4.345915 17.23899393 -1 17 C1.31282587 13.53076119 1.42478586 12.07794425 1 8 C0 6 0 6 -2 5 C-5.81300434 4.36449928 -7.27640007 4.20637427 -9.9375 7.125 Z " fill="#373B49" transform="translate(182,240)"/>
<path d="M0 0 C3.76145035 0.03902932 5.46514834 0.15554092 8.8125 2 C11.91601682 5.70419749 12.79896788 7.94139939 12.625 12.8125 C11.63380261 16.77728957 10.68965943 18.49253355 7.75 21.3125 C4.296875 21.80078125 4.296875 21.80078125 0.5 21.625 C-0.76328125 21.57988281 -2.0265625 21.53476562 -3.328125 21.48828125 C-4.29234375 21.43027344 -5.2565625 21.37226563 -6.25 21.3125 C-6.27888146 18.00001813 -6.29675799 14.68756833 -6.3125 11.375 C-6.32087891 10.42947266 -6.32925781 9.48394531 -6.33789062 8.50976562 C-6.34111328 7.61064453 -6.34433594 6.71152344 -6.34765625 5.78515625 C-6.35289307 4.95250244 -6.35812988 4.11984863 -6.36352539 3.26196289 C-6.1319438 -0.71476607 -3.39487506 0.08623346 0 0 Z M-1.25 5.3125 C-1.25 9.2725 -1.25 13.2325 -1.25 17.3125 C0.73 17.3125 2.71 17.3125 4.75 17.3125 C7.07528287 14.98721713 7.04511025 14.46584102 7.0625 11.3125 C7.07925781 10.61125 7.09601563 9.91 7.11328125 9.1875 C6.99339844 8.56875 6.87351562 7.95 6.75 7.3125 C3.65754997 4.85024984 3.65754997 4.85024984 -1.25 5.3125 Z " fill="#141824" transform="translate(357.25,239.6875)"/>
<path d="M0 0 C5.13726631 2.40774685 9.00725262 6.00725262 13 10 C13.33 6.7 13.66 3.4 14 0 C15.65 0 17.3 0 19 0 C19 7.26 19 14.52 19 22 C17.68 21.67 16.36 21.34 15 21 C14.67 20.01 14.34 19.02 14 18 C13.4225 17.71125 12.845 17.4225 12.25 17.125 C9.23969997 15.61984999 7.29852456 13.42622037 5 11 C4.67 14.3 4.34 17.6 4 21 C3.01 21.33 2.02 21.66 1 22 C0 21 0 21 -0.11352539 18.95874023 C-0.10828857 18.08419189 -0.10305176 17.20964355 -0.09765625 16.30859375 C-0.09443359 15.36435547 -0.09121094 14.42011719 -0.08789062 13.44726562 C-0.07951172 12.45404297 -0.07113281 11.46082031 -0.0625 10.4375 C-0.05798828 9.44041016 -0.05347656 8.44332031 -0.04882812 7.41601562 C-0.03700007 4.94395151 -0.02051849 2.47200482 0 0 Z " fill="#242A35" transform="translate(386,240)"/>
<path d="M0 0 C10.06206497 -0.3636891 10.06206497 -0.3636891 14.0625 1.1875 C16.50455666 3.47200462 17.28450968 4.70874453 18 8 C18.06124301 12.27935558 17.72245078 15.79591537 15.5 19.5 C11.85133473 21.68919916 8.2197314 22.03714552 4 22 C2.68 21.67 1.36 21.34 0 21 C0 14.07 0 7.14 0 0 Z M5 5 C5 8.96 5 12.92 5 17 C6.98 17 8.96 17 11 17 C13.31282587 13.53076119 13.42478586 12.07794425 13 8 C11.93654948 6.01970318 11.93654948 6.01970318 10 5 C8.35 5 6.7 5 5 5 Z " fill="#6B6E7A" transform="translate(242,240)"/>
<path d="M0 0 C7 0 14 0 21 0 C21 2.64 21 5.28 21 8 C21.99 8 22.98 8 24 8 C24 5.36 24 2.72 24 0 C24.99 0 25.98 0 27 0 C27 3.63 27 7.26 27 11 C23 12 23 12 19.625 11.5 C16.05638815 10.82087676 16.05638815 10.82087676 12.75 11.5625 C10 12 10 12 7 10 C6.8125 6.875 6.8125 6.875 7 4 C6.01 4 5.02 4 4 4 C4 6.31 4 8.62 4 11 C2.68 11 1.36 11 0 11 C0 7.37 0 3.74 0 0 Z M11 4 C10.67 4.99 10.34 5.98 10 7 C10.66 7.66 11.32 8.32 12 9 C12.66 8.34 13.32 7.68 14 7 C14 6.01 14 5.02 14 4 C13.01 4 12.02 4 11 4 Z " fill="#6E7076" transform="translate(285,274)"/>
<path d="M0 0 C4.29 0 8.58 0 13 0 C13 1.65 13 3.3 13 5 C10.36 5 7.72 5 5 5 C5 5.99 5 6.98 5 8 C7.64 8 10.28 8 13 8 C13 9.32 13 10.64 13 12 C10.36 12 7.72 12 5 12 C5 13.65 5 15.3 5 17 C7.64 17 10.28 17 13 17 C13 18.32 13 19.64 13 21 C8.05504989 22.39076722 5.68820298 21.71102537 0 21 C0 14.07 0 7.14 0 0 Z " fill="#525661" transform="translate(224,240)"/>
<path d="M0 0 C3.96 0 7.92 0 12 0 C12 1.65 12 3.3 12 5 C9.69 5.33 7.38 5.66 5 6 C5 6.33 5 6.66 5 7 C7.31 7.33 9.62 7.66 12 8 C12 9.32 12 10.64 12 12 C9.36 12 6.72 12 4 12 C4 13.65 4 15.3 4 17 C6.64 17 9.28 17 12 17 C12 18.32 12 19.64 12 21 C10.20909747 21.19466332 8.41723495 21.38051213 6.625 21.5625 C5.62726563 21.66691406 4.62953125 21.77132813 3.6015625 21.87890625 C1 22 1 22 -1 21 C-1.02895976 17.87501937 -1.04678483 14.7500731 -1.0625 11.625 C-1.07087891 10.73554688 -1.07925781 9.84609375 -1.08789062 8.9296875 C-1.09111328 8.07890625 -1.09433594 7.228125 -1.09765625 6.3515625 C-1.10289307 5.56604004 -1.10812988 4.78051758 -1.11352539 3.97119141 C-1 2 -1 2 0 0 Z " fill="#0B0F21" transform="translate(334,240)"/>
<path d="M0 0 C0.99 0 1.98 0 3 0 C4.12918033 2.37309022 5.25342065 4.74831994 6.375 7.125 C6.69210937 7.79015625 7.00921875 8.4553125 7.3359375 9.140625 C9.16675254 13.03110695 10.72966893 16.88104776 12 21 C10.02 21 8.04 21 6 21 C5.67 20.01 5.34 19.02 5 18 C2.69 18 0.38 18 -2 18 C-2.33 18.99 -2.66 19.98 -3 21 C-4.65 21 -6.3 21 -8 21 C-7.32512263 16.18080529 -5.42034091 12.08116134 -3.4375 7.6875 C-2.9434668 6.57665039 -2.9434668 6.57665039 -2.43945312 5.44335938 C-1.63082877 3.62688438 -0.81602884 1.81316069 0 0 Z M1 10 C2 12 2 12 2 12 Z " fill="#171B28" transform="translate(417,240)"/>
<path d="M0 0 C1.65 0 3.3 0 5 0 C6.32 3.3 7.64 6.6 9 10 C10.65 6.7 12.3 3.4 14 0 C15.65 0.33 17.3 0.66 19 1 C16.32365696 8.19541408 13.59434934 15.21067348 10 22 C9.34 22 8.68 22 8 22 C6.65445055 19.08881787 5.32575471 16.17024347 4 13.25 C3.6184375 12.425 3.236875 11.6 2.84375 10.75 C2.4828125 9.95078125 2.121875 9.1515625 1.75 8.328125 C1.41484375 7.5949707 1.0796875 6.86181641 0.734375 6.10644531 C0 4 0 4 0 0 Z " fill="#212531" transform="translate(191,240)"/>
<path d="M0 0 C1.76462683 3.08809695 2 4.23312136 2 8 C4.97 8 7.94 8 11 8 C11.33 7.34 11.66 6.68 12 6 C12.66 6 13.32 6 14 6 C14.33 4.68 14.66 3.36 15 2 C15.66 2 16.32 2 17 2 C17.36681223 9.45851528 17.36681223 9.45851528 15.6875 11.9375 C11.87894668 14.33547802 8.38197923 14.30220546 4 14 C1.12694028 12.59539303 -0.74510999 11.25489001 -3 9 C-3.26991906 6.31160615 -3.08737357 3.70858064 -3 1 C-2.01 1.33 -1.02 1.66 0 2 C0 1.34 0 0.68 0 0 Z " fill="#282C37" transform="translate(170,248)"/>
<path d="M0 0 C-0.32597168 0.72018311 -0.65194336 1.44036621 -0.98779297 2.18237305 C-2.0192973 5.05371686 -2.2324755 7.05324683 -2.1953125 10.08203125 C-2.18886719 11.01337891 -2.18242187 11.94472656 -2.17578125 12.90429688 C-2.15902344 13.86400391 -2.14226562 14.82371094 -2.125 15.8125 C-2.11146484 17.28106445 -2.11146484 17.28106445 -2.09765625 18.77929688 C-2.07417182 21.18645061 -2.0413284 23.59309743 -2 26 C-2.99 26.33 -3.98 26.66 -5 27 C-5.66 26.67 -6.32 26.34 -7 26 C-7.08678303 22.04180389 -7.14031733 18.08385066 -7.1875 14.125 C-7.21263672 12.99707031 -7.23777344 11.86914062 -7.26367188 10.70703125 C-7.27333984 9.63066406 -7.28300781 8.55429688 -7.29296875 7.4453125 C-7.3086792 6.45031738 -7.32438965 5.45532227 -7.34057617 4.43017578 C-7.22818604 3.62821777 -7.1157959 2.82625977 -7 2 C-4 0 -4 0 0 0 Z " fill="#6A6E77" transform="translate(220,235)"/>
<path d="M0 0 C2.05078125 0.03255208 4.1015625 0.06510417 6.15234375 0.09765625 C5.82234375 1.41765625 5.49234375 2.73765625 5.15234375 4.09765625 C3.50234375 4.09765625 1.85234375 4.09765625 0.15234375 4.09765625 C0.15234375 6.07765625 0.15234375 8.05765625 0.15234375 10.09765625 C1.14234375 10.42765625 2.13234375 10.75765625 3.15234375 11.09765625 C2.82234375 9.44765625 2.49234375 7.79765625 2.15234375 6.09765625 C3.80234375 6.09765625 5.45234375 6.09765625 7.15234375 6.09765625 C7.15234375 8.73765625 7.15234375 11.37765625 7.15234375 14.09765625 C4.31150734 15.51807446 2.29757097 15.41217897 -0.84765625 15.09765625 C-3.50124887 13.16125083 -4.60865095 11.71907002 -5.78515625 8.66015625 C-5.86641876 5.3283932 -4.77134444 3.76122451 -2.84765625 1.09765625 C-1.84765625 0.09765625 -1.84765625 0.09765625 0 0 Z " fill="#3D4148" transform="translate(276.84765625,270.90234375)"/>
<path d="M0 0 C0.33 0 0.66 0 1 0 C1 15.51 1 31.02 1 47 C-9.125 43.625 -9.125 43.625 -12.59765625 41.51953125 C-13.33564453 41.07802734 -14.07363281 40.63652344 -14.83398438 40.18164062 C-15.56939453 39.72982422 -16.30480469 39.27800781 -17.0625 38.8125 C-18.21782227 38.11737305 -18.21782227 38.11737305 -19.39648438 37.40820312 C-21.2690798 36.27999346 -23.13524354 35.14111963 -25 34 C-21.22349118 32.86384692 -19.60398964 33.37820466 -16 35 C-15.29875 35.103125 -14.5975 35.20625 -13.875 35.3125 C-12 36 -12 36 -10.5625 38.5 C-9.22232165 41.25461912 -9.22232165 41.25461912 -6.3125 41.8125 C-5.1678125 41.9053125 -5.1678125 41.9053125 -4 42 C-4 42.66 -4 43.32 -4 44 C-3.34 44 -2.68 44 -2 44 C-1.34 29.48 -0.68 14.96 0 0 Z " fill="#333E4A" transform="translate(296,176)"/>
<path d="M0 0 C1.65 0 3.3 0 5 0 C5 6.93 5 13.86 5 21 C3.35 21 1.7 21 0 21 C-1.9395114 19.0604886 -1.13256629 16.1879288 -1.13671875 13.61132812 C-1.13091797 12.3496582 -1.13091797 12.3496582 -1.125 11.0625 C-1.12886719 10.22525391 -1.13273437 9.38800781 -1.13671875 8.52539062 C-1.13542969 7.72423828 -1.13414062 6.92308594 -1.1328125 6.09765625 C-1.13168457 5.36039307 -1.13055664 4.62312988 -1.12939453 3.86352539 C-1 2 -1 2 0 0 Z " fill="#555862" transform="translate(375,240)"/>
<path d="M0 0 C0.66 0 1.32 0 2 0 C3.77149249 6.9796804 5.47512736 13.96212627 7 21 C6.01 21.33 5.02 21.66 4 22 C1 20 1 20 0.3125 17.375 C0.209375 16.59125 0.10625 15.8075 0 15 C-0.99 15 -1.98 15 -3 15 C-4.40913826 9.36344696 -3.73956036 6.55846884 -0.91015625 1.50390625 C-0.60980469 1.00761719 -0.30945313 0.51132813 0 0 Z " fill="#141926" transform="translate(323,240)"/>
<path d="M0 0 C0.33 0 0.66 0 1 0 C1.33 5.28 1.66 10.56 2 16 C2.66 12.7 3.32 9.4 4 6 C4.33 6 4.66 6 5 6 C5 9.3 5 12.6 5 16 C7.31 15.34 9.62 14.68 12 14 C12.33 11.69 12.66 9.38 13 7 C13.33 7 13.66 7 14 7 C14.33 8.65 14.66 10.3 15 12 C15.66 11.34 16.32 10.68 17 10 C17.66 10 18.32 10 19 10 C17.060068 17.90895353 17.060068 17.90895353 14 20 C9.30736629 20.40971773 4.71873609 20.12987347 0 20 C0 13.4 0 6.8 0 0 Z " fill="#313643" transform="translate(351,241)"/>
<path d="M0 0 C0.33 0.66 0.66 1.32 1 2 C0.67 2.66 0.34 3.32 0 4 C1.11375 4.144375 2.2275 4.28875 3.375 4.4375 C7 5 7 5 9 6 C9 6.99 9 7.98 9 9 C10.98 9 12.96 9 15 9 C14.67 9.99 14.34 10.98 14 12 C13.01 12.33 12.02 12.66 11 13 C5.72 10.03 0.44 7.06 -5 4 C-5 19.18 -5 34.36 -5 50 C-5.33 50 -5.66 50 -6 50 C-6 34.49 -6 18.98 -6 3 C-4.02 2.01 -2.04 1.02 0 0 Z " fill="#B29C92" transform="translate(261,150)"/>
<path d="M0 0 C1.125 6.625 1.125 6.625 0 10 C-1.98 10.33 -3.96 10.66 -6 11 C-6 11.99 -6 12.98 -6 14 C-6.99 14 -7.98 14 -9 14 C-9 9.05 -9 4.1 -9 -1 C-5.79937313 -2.60031344 -3.27728194 -1.03173691 0 0 Z M-6 3 C-6 4.32 -6 5.64 -6 7 C-5.01 7 -4.02 7 -3 7 C-3 5.68 -3 4.36 -3 3 C-3.99 3 -4.98 3 -6 3 Z " fill="#292D38" transform="translate(322,275)"/>
<path d="M0 0 C0.99 0 1.98 0 3 0 C3 2.64 3 5.28 3 8 C3.99 8 4.98 8 6 8 C6 5.36 6 2.72 6 0 C6.99 0 7.98 0 9 0 C9 3.63 9 7.26 9 11 C5.32266781 11.91933305 3.40100462 11.99485581 -0.25 11.5625 C-1.58804687 11.40974609 -1.58804687 11.40974609 -2.953125 11.25390625 C-3.62859375 11.17011719 -4.3040625 11.08632813 -5 11 C-4.67 8.69 -4.34 6.38 -4 4 C-4.66 3.67 -5.32 3.34 -6 3 C-4.68 3 -3.36 3 -2 3 C-0.875 6.75 -0.875 6.75 -2 9 C-1.34 9 -0.68 9 0 9 C0 6.03 0 3.06 0 0 Z " fill="#555760" transform="translate(303,274)"/>
<path d="M0 0 C0.66 0 1.32 0 2 0 C2 0.66 2 1.32 2 2 C2.99 2.33 3.98 2.66 5 3 C5 18.18 5 33.36 5 49 C4.34 49 3.68 49 3 49 C3 34.48 3 19.96 3 5 C2.01 4.67 1.02 4.34 0 4 C0 2.68 0 1.36 0 0 Z " fill="#DFBC82" transform="translate(335,151)"/>
<path d="M0 0 C1.21236328 0.02707031 1.21236328 0.02707031 2.44921875 0.0546875 C3.37154297 0.08949219 3.37154297 0.08949219 4.3125 0.125 C4.3125 0.455 4.3125 0.785 4.3125 1.125 C1.6725 1.455 -0.9675 1.785 -3.6875 2.125 C-3.6875 2.455 -3.6875 2.785 -3.6875 3.125 C-2.0375 3.455 -0.3875 3.785 1.3125 4.125 C0.714375 4.393125 0.11625 4.66125 -0.5 4.9375 C-4.04701359 6.86302166 -5.37063972 8.32451088 -6.875 12.125 C-7.81820774 15.08959999 -7.81820774 15.08959999 -7.6875 18.125 C-8.6775 17.795 -9.6675 17.465 -10.6875 17.125 C-10.9111337 15.71066794 -11.11576476 14.29332382 -11.3125 12.875 C-11.42851562 12.08609375 -11.54453125 11.2971875 -11.6640625 10.484375 C-11.69069395 7.80347541 -11.05342084 6.39805911 -9.6875 4.125 C-9.0275 4.125 -8.3675 4.125 -7.6875 4.125 C-7.6875 3.465 -7.6875 2.805 -7.6875 2.125 C-4.48369983 -0.01086678 -3.66810033 -0.10632175 0 0 Z " fill="#4A4C5A" transform="translate(275.6875,239.875)"/>
<path d="M0 0 C-0.33742331 7.89570552 -0.33742331 7.89570552 -2.5 11.5 C-6.08731563 13.65238938 -9.82560695 14.24176022 -14 14 C-14.66 13.34 -15.32 12.68 -16 12 C-15.34 11.01 -14.68 10.02 -14 9 C-12.2984375 8.7834375 -12.2984375 8.7834375 -10.5625 8.5625 C-6.98808701 8.34793726 -6.98808701 8.34793726 -5.0625 6.125 C-3.7763932 3.94875678 -3.7763932 3.94875678 -4 1 C-2 0 -2 0 0 0 Z " fill="#262B37" transform="translate(260,248)"/>
<path d="M0 0 C1.65 0 3.3 0 5 0 C5 4.62 5 9.24 5 14 C1 16 1 16 -1.25 15.625 C-1.8275 15.41875 -2.405 15.2125 -3 15 C-1.68 14.01 -0.36 13.02 1 12 C0.67 11.67 0.34 11.34 0 11 C-0.07226502 9.14712498 -0.0838122 7.29166122 -0.0625 5.4375 C-0.05347656 4.42558594 -0.04445313 3.41367188 -0.03515625 2.37109375 C-0.02355469 1.58863281 -0.01195312 0.80617187 0 0 Z " fill="#090F1E" transform="translate(400,240)"/>
<path d="M0 0 C0.33 0 0.66 0 1 0 C1.33 4.95 1.66 9.9 2 15 C2.66 15 3.32 15 4 15 C4.33 14.01 4.66 13.02 5 12 C5 12.99 5 13.98 5 15 C7.64 15 10.28 15 13 15 C13 16.32 13 17.64 13 19 C11.20909747 19.19466332 9.41723495 19.38051213 7.625 19.5625 C6.62726563 19.66691406 5.62953125 19.77132813 4.6015625 19.87890625 C2 20 2 20 0 19 C0 12.73 0 6.46 0 0 Z " fill="#5D5F66" transform="translate(333,242)"/>
<path d="M0 0 C8.90892963 -0.61206387 8.90892963 -0.61206387 12.5625 1.4375 C14.64606219 5.15167608 14.82033321 8.7957971 15 13 C14.67 13 14.34 13 14 13 C14 11.35 14 9.7 14 8 C13.01 8 12.02 8 11 8 C10.67 7.67 10.34 7.34 10 7 C9.34 7 8.68 7 8 7 C8 6.34 8 5.68 8 5 C5.03 4.01 2.06 3.02 -1 2 C-0.67 1.34 -0.34 0.68 0 0 Z " fill="#424651" transform="translate(272,241)"/>
<path d="M0 0 C0.99 0 1.98 0 3 0 C7.59225513 8.261959 7.59225513 8.261959 7 13 C3.62537285 12.45276317 1.91765 11.9451 -1 10 C-0.67 6.7 -0.34 3.4 0 0 Z " fill="#2B313B" transform="translate(309,240)"/>
<path d="M0 0 C1.65 0 3.3 0 5 0 C8 6.625 8 6.625 8 10 C6 11.6875 6 11.6875 4 13 C3.32404685 11.58774074 2.65959941 10.16997095 2 8.75 C1.62875 7.96109375 1.2575 7.1721875 0.875 6.359375 C0 4 0 4 0 0 Z " fill="#404350" transform="translate(191,240)"/>
<path d="M0 0 C0.66 0 1.32 0 2 0 C2 6.27 2 12.54 2 19 C1.34 19.33 0.68 19.66 0 20 C-0.66 19.67 -1.32 19.34 -2 19 C-1.85982174 16.02046641 -1.71313658 13.04150696 -1.5625 10.0625 C-1.52318359 9.21236328 -1.48386719 8.36222656 -1.44335938 7.48632812 C-1.40146484 6.67744141 -1.35957031 5.86855469 -1.31640625 5.03515625 C-1.27974854 4.2862915 -1.24309082 3.53742676 -1.20532227 2.76586914 C-1 1 -1 1 0 0 Z " fill="#0E1120" transform="translate(215,242)"/>
<path d="M0 0 C0.33 0 0.66 0 1 0 C1.33 11.55 1.66 23.1 2 35 C-2.455 37.475 -2.455 37.475 -7 40 C-7.33 39.34 -7.66 38.68 -8 38 C-7.34 38 -6.68 38 -6 38 C-6.495 36.515 -6.495 36.515 -7 35 C-5.02 35 -3.04 35 -1 35 C-0.67 23.45 -0.34 11.9 0 0 Z " fill="#DBAA4B" transform="translate(337,166)"/>
<path d="M0 0 C0.99 0 1.98 0 3 0 C3.69699552 1.45381897 4.38233866 2.91322953 5.0625 4.375 C5.63677734 5.59316406 5.63677734 5.59316406 6.22265625 6.8359375 C6.47917969 7.55007812 6.73570312 8.26421875 7 9 C6 11 6 11 4 13 C2.68 13 1.36 13 0 13 C0.33 10.69 0.66 8.38 1 6 C0.34 6 -0.32 6 -1 6 C-0.67 4.02 -0.34 2.04 0 0 Z " fill="#292C38" transform="translate(417,240)"/>
<path d="M0 0 C4.75 1.875 4.75 1.875 7 3 C6.67 3.99 6.34 4.98 6 6 C4.68 6 3.36 6 2 6 C1.67 10.29 1.34 14.58 1 19 C0.34 18.67 -0.32 18.34 -1 18 C-1.02684312 15.18743719 -1.04676188 12.37512759 -1.0625 9.5625 C-1.07087891 8.76005859 -1.07925781 7.95761719 -1.08789062 7.13085938 C-1.0965143 5.08704779 -1.0522815 3.04316098 -1 1 C-0.67 0.67 -0.34 0.34 0 0 Z " fill="#393A3E" transform="translate(298,130)"/>
<path d="M0 0 C0.9075 0.185625 1.815 0.37125 2.75 0.5625 C5.68314324 0.95734621 7.2644657 0.94691572 10 0 C8.68 1.32 7.36 2.64 6 4 C9.465 3.505 9.465 3.505 13 3 C13 5.64 13 8.28 13 11 C11.0625 10.6875 11.0625 10.6875 9 10 C8.67 9.01 8.34 8.02 8 7 C7.401875 6.71125 6.80375 6.4225 6.1875 6.125 C3.30899659 4.64462682 1.89900001 2.57721429 0 0 Z " fill="#393C49" transform="translate(392,251)"/>
<path d="M0 0 C3.96006597 0.55256734 7.33333392 1.41441467 11 3 C11.99 3.33 12.98 3.66 14 4 C14.28875 4.66 14.5775 5.32 14.875 6 C15.8553382 8.29150599 15.8553382 8.29150599 18.625 8.75 C19.40875 8.8325 20.1925 8.915 21 9 C21 9.66 21 10.32 21 11 C21.66 11.33 22.32 11.66 23 12 C22.01 12.495 22.01 12.495 21 13 C19.16821289 12.24316406 19.16821289 12.24316406 16.97265625 11.015625 C16.18052734 10.57476562 15.38839844 10.13390625 14.57226562 9.6796875 C13.74404297 9.20789063 12.91582031 8.73609375 12.0625 8.25 C11.23814453 7.79367188 10.41378906 7.33734375 9.56445312 6.8671875 C5.95993239 4.84092564 2.82580786 3.06004001 0 0 Z " fill="#293B4E" transform="translate(271,209)"/>
<path d="M0 0 C0.66 0.33 1.32 0.66 2 1 C3.53668865 1.22467831 5.07968054 1.40796805 6.625 1.5625 C7.44226563 1.64628906 8.25953125 1.73007812 9.1015625 1.81640625 C9.72804687 1.87699219 10.35453125 1.93757813 11 2 C11 3.32 11 4.64 11 6 C6.74433453 7.16063604 3.3164922 6.76173392 -1 6 C-0.67 4.02 -0.34 2.04 0 0 Z " fill="#1D212B" transform="translate(226,255)"/>
<path d="M0 0 C0.33 0 0.66 0 1 0 C1 10.23 1 20.46 1 31 C-6 34 -6 34 -8.4375 33.6875 C-8.953125 33.460625 -9.46875 33.23375 -10 33 C-9.36263916 32.80510986 -8.72527832 32.61021973 -8.06860352 32.40942383 C-5.17601961 31.23619021 -3.25142349 30.18148047 -1 28 C0.31037348 23.24119475 0.16767725 18.59658684 0.0625 13.6875 C0.06958984 12.37458984 0.07667969 11.06167969 0.08398438 9.70898438 C0.09576078 6.47047169 0.06632163 3.23770131 0 0 Z " fill="#ECC78F" transform="translate(321,162)"/>
<path d="M0 0 C-4.5 4 -4.5 4 -9 4 C-9.33 4.66 -9.66 5.32 -10 6 C-10.33 6.33 -10.66 6.66 -11 7 C-11.15764405 8.77869726 -11.25100677 10.56318476 -11.31640625 12.34765625 C-11.35830078 13.42724609 -11.40019531 14.50683594 -11.44335938 15.61914062 C-11.48267578 16.75544922 -11.52199219 17.89175781 -11.5625 19.0625 C-11.60568359 20.20267578 -11.64886719 21.34285156 -11.69335938 22.51757812 C-11.79982839 25.34492195 -11.90184207 28.17235738 -12 31 C-12.33 31 -12.66 31 -13 31 C-13.26221814 26.79285562 -13.42147604 22.58781109 -13.5625 18.375 C-13.63791016 17.18519531 -13.71332031 15.99539062 -13.79101562 14.76953125 C-14.00721048 6.1697805 -14.00721048 6.1697805 -11.09716797 2.79003906 C-7.24777828 0.06177722 -4.6531986 -1.72271605 0 0 Z " fill="#CFA55C" transform="translate(335,157)"/>
<path d="M0 0 C0.33 2.31 0.66 4.62 1 7 C0.34 6.34 -0.32 5.68 -1 5 C-1.66 5.66 -2.32 6.32 -3 7 C-3 5.68 -3 4.36 -3 3 C-4.98 3.33 -6.96 3.66 -9 4 C-9 2.35 -9 0.7 -9 -1 C-5.79937313 -2.60031344 -3.27728194 -1.03173691 0 0 Z " fill="#3D414A" transform="translate(322,275)"/>
<path d="M0 0 C1.76462683 3.08809695 2 4.23312136 2 8 C2.66 8 3.32 8 4 8 C4 8.99 4 9.98 4 11 C2.1875 11.6875 2.1875 11.6875 0 12 C-1.75 11.0625 -1.75 11.0625 -3 9 C-3.2515578 6.28103489 -3.13484667 3.74188232 -3 1 C-2.01 1.33 -1.02 1.66 0 2 C0 1.34 0 0.68 0 0 Z " fill="#222531" transform="translate(170,248)"/>
<path d="M0 0 C3.875 1.75 3.875 1.75 5 4 C7.52733235 4.65555119 7.52733235 4.65555119 10 5 C9.01 5.99 8.02 6.98 7 8 C8.65 8.33 10.3 8.66 12 9 C12 9.33 12 9.66 12 10 C3.52 10.32615385 3.52 10.32615385 1 8 C0.34919439 5.29750215 0.18036503 2.795658 0 0 Z " fill="#2B303B" transform="translate(267,252)"/>
<path d="M0 0 C2.375 0.3125 2.375 0.3125 5 1 C7 4 7 4 6.625 6.1875 C6.41875 6.785625 6.2125 7.38375 6 8 C5.34 8 4.68 8 4 8 C4.33 9.32 4.66 10.64 5 12 C4.01 12.495 4.01 12.495 3 13 C2.71125 11.9275 2.4225 10.855 2.125 9.75 C1.17357654 6.16546862 1.17357654 6.16546862 -0.1875 3.6875 C-0.455625 3.130625 -0.72375 2.57375 -1 2 C-0.67 1.34 -0.34 0.68 0 0 Z " fill="#353A46" transform="translate(252,241)"/>
<path d="M0 0 C0.99 0 1.98 0 3 0 C2.67 6.93 2.34 13.86 2 21 C0.35 21 -1.3 21 -3 21 C-3.33 20.34 -3.66 19.68 -4 19 C-2.68 19.33 -1.36 19.66 0 20 C0 13.4 0 6.8 0 0 Z " fill="#9E865B" transform="translate(297,203)"/>
<path d="M0 0 C-0.33 1.32 -0.66 2.64 -1 4 C-2.32 4 -3.64 4 -5 4 C-5.0825 4.78375 -5.165 5.5675 -5.25 6.375 C-6 9 -6 9 -8.0625 10.3125 C-9.0215625 10.6528125 -9.0215625 10.6528125 -10 11 C-10 10.34 -10 9.68 -10 9 C-11.65 9 -13.3 9 -15 9 C-12.59888822 6.36115438 -9.99444972 4.63586471 -6.9375 2.8125 C-5.62072266 2.01779297 -5.62072266 2.01779297 -4.27734375 1.20703125 C-2 0 -2 0 0 0 Z " fill="#CB8C4D" transform="translate(277,141)"/>
<path d="M0 0 C9.73004484 -0.76681614 9.73004484 -0.76681614 12.84375 1.11328125 C14.1875 2.5 14.1875 2.5 16 5 C14.68 5 13.36 5 12 5 C11.67 4.34 11.34 3.68 11 3 C10.67 3.33 10.34 3.66 10 4 C7.66702567 4.04092937 5.33294775 4.04241723 3 4 C3 3.34 3 2.68 3 2 C2.01 1.34 1.02 0.68 0 0 Z M1 3 C1.66 3.66 2.32 4.32 3 5 C2.34 5 1.68 5 1 5 C1 4.34 1 3.68 1 3 Z " fill="#4A4E59" transform="translate(352,240)"/>
<path d="M0 0 C2.64465038 3.1254959 3.84414715 6.08788267 5 10 C3.02 10 1.04 10 -1 10 C-1.33 9.01 -1.66 8.02 -2 7 C-4.31 6.67 -6.62 6.34 -9 6 C-9 5.67 -9 5.34 -9 5 C-6.36 5 -3.72 5 -1 5 C-0.67 3.35 -0.34 1.7 0 0 Z " fill="#4E525C" transform="translate(424,251)"/>
<path d="M0 0 C0.99 0.33 1.98 0.66 3 1 C2.67 3.64 2.34 6.28 2 9 C0.68 9.33 -0.64 9.66 -2 10 C-2.33 11.32 -2.66 12.64 -3 14 C-3.66 14 -4.32 14 -5 14 C-4.34580901 8.93001981 -2.1453591 4.58009223 0 0 Z " fill="#202530" transform="translate(415,245)"/>
<path d="M0 0 C1.65 0 3.3 0 5 0 C4.01 0.495 4.01 0.495 3 1 C2.67 1.99 2.34 2.98 2 4 C2.66 4.66 3.32 5.32 4 6 C3.828125 8.34765625 3.828125 8.34765625 3.25 11.0625 C3.06953125 11.96097656 2.8890625 12.85945312 2.703125 13.78515625 C2.47109375 14.51605469 2.2390625 15.24695313 2 16 C1.34 16.33 0.68 16.66 0 17 C0 11.39 0 5.78 0 0 Z " fill="#09101C" transform="translate(352,241)"/>
<path d="M0 0 C1.32 0.33 2.64 0.66 4 1 C4.02693575 3.12493141 4.04636628 5.24995912 4.0625 7.375 C4.07410156 8.55835938 4.08570313 9.74171875 4.09765625 10.9609375 C4 14 4 14 3 16 C2.34 16 1.68 16 1 16 C0.67 10.72 0.34 5.44 0 0 Z " fill="#0F1320" transform="translate(242,241)"/>
<path d="M0 0 C0.33 0 0.66 0 1 0 C1.33 5.28 1.66 10.56 2 16 C2.66 12.7 3.32 9.4 4 6 C4.33 6 4.66 6 5 6 C5.02705729 7.77074917 5.04642195 9.54161711 5.0625 11.3125 C5.07410156 12.29863281 5.08570313 13.28476563 5.09765625 14.30078125 C5 17 5 17 4 20 C2.68 20 1.36 20 0 20 C0 13.4 0 6.8 0 0 Z " fill="#73757F" transform="translate(351,241)"/>
<path d="M0 0 C2.05078125 0.03255208 4.1015625 0.06510417 6.15234375 0.09765625 C6.15234375 1.74765625 6.15234375 3.39765625 6.15234375 5.09765625 C3.51234375 5.09765625 0.87234375 5.09765625 -1.84765625 5.09765625 C-2.41015625 3.16015625 -2.41015625 3.16015625 -2.84765625 1.09765625 C-1.84765625 0.09765625 -1.84765625 0.09765625 0 0 Z " fill="#4F535D" transform="translate(294.84765625,251.90234375)"/>
<path d="M0 0 C0.66 0 1.32 0 2 0 C2 2.97 2 5.94 2 9 C-2 10 -2 10 -5 10 C-4.67 7.69 -4.34 5.38 -4 3 C-4.66 2.67 -5.32 2.34 -6 2 C-4.68 2 -3.36 2 -2 2 C-0.875 5.75 -0.875 5.75 -2 8 C-1.34 8 -0.68 8 0 8 C0 5.36 0 2.72 0 0 Z " fill="#181B24" transform="translate(303,275)"/>
<path d="M0 0 C0.66 0.66 1.32 1.32 2 2 C2.99 2 3.98 2 5 2 C5.66 4.64 6.32 7.28 7 10 C6.01 10.33 5.02 10.66 4 11 C0.12085101 8.41390067 -0.04532091 6.45516908 -1 2 C-0.67 1.34 -0.34 0.68 0 0 Z " fill="#444550" transform="translate(323,251)"/>
<path d="M0 0 C0.61359375 0.19078125 1.2271875 0.3815625 1.859375 0.578125 C-0.59581235 2.08349535 -3.0544702 3.58256926 -5.515625 5.078125 C-6.21429688 5.50738281 -6.91296875 5.93664062 -7.6328125 6.37890625 C-12.9140625 9.578125 -12.9140625 9.578125 -15.140625 9.578125 C-15.140625 8.258125 -15.140625 6.938125 -15.140625 5.578125 C-13.92375 5.145 -12.706875 4.711875 -11.453125 4.265625 C-8.81863556 3.29453453 -6.78191564 2.34985541 -4.390625 0.828125 C-2.140625 -0.421875 -2.140625 -0.421875 0 0 Z " fill="#DBB56F" transform="translate(314.140625,214.421875)"/>
<path d="M0 0 C1.65 0 3.3 0 5 0 C5 2.64 5 5.28 5 8 C3.35 8.33 1.7 8.66 0 9 C-0.33 8.01 -0.66 7.02 -1 6 C-0.34 6 0.32 6 1 6 C0.67 4.02 0.34 2.04 0 0 Z " fill="#22242F" transform="translate(279,277)"/>
<path d="M0 0 C0.66 0.33 1.32 0.66 2 1 C1.67 1.66 1.34 2.32 1 3 C1.33 3.99 1.66 4.98 2 6 C1.01 7.485 1.01 7.485 0 9 C-0.99 9 -1.98 9 -3 9 C-3.33 10.65 -3.66 12.3 -4 14 C-4.33 14 -4.66 14 -5 14 C-5.602537 7.01057082 -5.602537 7.01057082 -3.88671875 4.1328125 C-2.66254412 2.69138998 -1.33721771 1.33721771 0 0 Z " fill="#444855" transform="translate(171,241)"/>
<path d="M0 0 C3.19902639 -0.08886184 5.92677456 0.08941469 9 1 C8.67 1.66 8.34 2.32 8 3 C8.66 3.33 9.32 3.66 10 4 C9.67 4.66 9.34 5.32 9 6 C5.7 5.34 2.4 4.68 -1 4 C-0.67 2.68 -0.34 1.36 0 0 Z " fill="#CA7828" transform="translate(262,150)"/>
<path d="M0 0 C0.33 0 0.66 0 1 0 C1 5.94 1 11.88 1 18 C-0.65 18.66 -2.3 19.32 -4 20 C-3.69320313 19.51015625 -3.38640625 19.0203125 -3.0703125 18.515625 C-1.58634476 15.02775921 -1.27736958 11.48346196 -0.875 7.75 C-0.78863281 7.00492188 -0.70226562 6.25984375 -0.61328125 5.4921875 C-0.40213133 3.66222154 -0.20015455 1.83120121 0 0 Z " fill="#AF7D45" transform="translate(296,131)"/>
<path d="M0 0 C3.96 0 7.92 0 12 0 C12 1.65 12 3.3 12 5 C9.69 5 7.38 5 5 5 C5.33 3.68 5.66 2.36 6 1 C4.02 1 2.04 1 0 1 C0 0.67 0 0.34 0 0 Z " fill="#63656F" transform="translate(334,240)"/>
<path d="M0 0 C3.63 0 7.26 0 11 0 C11 1.32 11 2.64 11 4 C7.37 4 3.74 4 0 4 C0 2.68 0 1.36 0 0 Z " fill="#0F141E" transform="translate(225,241)"/>
<path d="M0 0 C0.66 0.33 1.32 0.66 2 1 C0.6875 3 0.6875 3 -1 5 C-1.99 5 -2.98 5 -4 5 C-4.33 5.99 -4.66 6.98 -5 8 C-5.99 8 -6.98 8 -8 8 C-8.66 9.32 -9.32 10.64 -10 12 C-10.625 9.375 -10.625 9.375 -10 6 C-6.93546784 3.48508502 -3.65336372 1.53920406 0 0 Z " fill="#DEB867" transform="translate(309,196)"/>
<path d="M0 0 C1.65 0.33 3.3 0.66 5 1 C4.01 3.97 3.02 6.94 2 10 C1.67 9.01 1.34 8.02 1 7 C0.34 6.67 -0.32 6.34 -1 6 C-1.33 5.01 -1.66 4.02 -2 3 C-1.34 2.01 -0.68 1.02 0 0 Z " fill="#4B515C" transform="translate(205,240)"/>
<path d="M0 0 C1.9814066 2.9721099 2.7434556 4.49389321 3 8 C1.6875 10.3125 1.6875 10.3125 0 12 C-0.66 12 -1.32 12 -2 12 C-2.66 10.35 -3.32 8.7 -4 7 C-2.68 6.34 -1.36 5.68 0 5 C-0.33 4.34 -0.66 3.68 -1 3 C-0.67 2.01 -0.34 1.02 0 0 Z " fill="#414450" transform="translate(318,250)"/>
<path d="M0 0 C0.66 0.33 1.32 0.66 2 1 C2.95067299 4.28414305 3.10102197 5.69693408 2 9 C0.68 9 -0.64 9 -2 9 C-2.25 3.375 -2.25 3.375 0 0 Z " fill="#181C28" transform="translate(203,245)"/>
<path d="M0 0 C1.65 0.33 3.3 0.66 5 1 C5.33 2.32 5.66 3.64 6 5 C3.625 6.0625 3.625 6.0625 1 7 C0.34 6.67 -0.32 6.34 -1 6 C-0.67 4.02 -0.34 2.04 0 0 Z " fill="#031B39" transform="translate(322,146)"/>
<path d="M0 0 C0.33 0.99 0.66 1.98 1 3 C1.99 2.67 2.98 2.34 4 2 C4 4.31 4 6.62 4 9 C2.68 9 1.36 9 0 9 C0 6.03 0 3.06 0 0 Z " fill="#747581" transform="translate(285,276)"/>
<path d="M0 0 C0.33 0 0.66 0 1 0 C1 4.62 1 9.24 1 14 C1.33 13.34 1.66 12.68 2 12 C2.66 12 3.32 12 4 12 C3.67 13.65 3.34 15.3 3 17 C2.01 17.33 1.02 17.66 0 18 C0 12.06 0 6.12 0 0 Z " fill="#494C56" transform="translate(242,243)"/>
<path d="M0 0 C1.65 0 3.3 0 5 0 C4.67 2.31 4.34 4.62 4 7 C3.34 7 2.68 7 2 7 C1.34 7.66 0.68 8.32 0 9 C0 6.03 0 3.06 0 0 Z " fill="#4A4C56" transform="translate(400,240)"/>
<path d="M0 0 C2.97 0 5.94 0 9 0 C8.34 1.65 7.68 3.3 7 5 C4.36 4.01 1.72 3.02 -1 2 C-0.67 1.34 -0.34 0.68 0 0 Z " fill="#0F121F" transform="translate(272,241)"/>
<path d="M0 0 C0.99 0.33 1.98 0.66 3 1 C3 3.64 3 6.28 3 9 C1.68 9 0.36 9 -1 9 C-0.67 6.03 -0.34 3.06 0 0 Z " fill="#0C101B" transform="translate(376,252)"/>
<path d="M0 0 C1.98 0 3.96 0 6 0 C5.67 1.98 5.34 3.96 5 6 C3.35 5.67 1.7 5.34 0 5 C0 3.35 0 1.7 0 0 Z " fill="#090F1A" transform="translate(334,241)"/>
<path d="M0 0 C1.0209375 0.2165625 1.0209375 0.2165625 2.0625 0.4375 C5.36273082 1.06945909 8.67144426 1.54313941 12 2 C11.67 2.99 11.34 3.98 11 5 C8 6 8 6 5.95703125 5.0390625 C5.24933594 4.57242188 4.54164063 4.10578125 3.8125 3.625 C3.09707031 3.16351563 2.38164062 2.70203125 1.64453125 2.2265625 C1.10183594 1.82179687 0.55914062 1.41703125 0 1 C0 0.67 0 0.34 0 0 Z " fill="#986C43" transform="translate(264,157)"/>
<path d="M0 0 C0.33 0.66 0.66 1.32 1 2 C0.34 2 -0.32 2 -1 2 C-1 2.66 -1 3.32 -1 4 C-4.375 4.625 -4.375 4.625 -8 5 C-8.66 4.34 -9.32 3.68 -10 3 C-6.99382731 -0.00617269 -4.17618402 0.40414684 0 0 Z " fill="#0D111D" transform="translate(254,257)"/>
<path d="M0 0 C0.99 1.485 0.99 1.485 2 3 C2.33 2.34 2.66 1.68 3 1 C3.66 1 4.32 1 5 1 C4.67 3.97 4.34 6.94 4 10 C3.01 9.67 2.02 9.34 1 9 C0.67 6.03 0.34 3.06 0 0 Z " fill="#636571" transform="translate(264,248)"/>
<path d="M0 0 C0.99 1.32 1.98 2.64 3 4 C2 6 2 6 0 8 C-1.32 8 -2.64 8 -4 8 C-3.50168276 4.31245243 -2.89932357 2.39509338 0 0 Z " fill="#474B5A" transform="translate(421,245)"/>
<path d="M0 0 C-0.33 1.65 -0.66 3.3 -1 5 C-1.33 4.34 -1.66 3.68 -2 3 C-2.7425 3.350625 -3.485 3.70125 -4.25 4.0625 C-7.21122875 5.0720098 -8.12062561 4.87980884 -11 4 C-9.73760288 3.13341385 -8.46472499 2.28207941 -7.1875 1.4375 C-6.47980469 0.96183594 -5.77210938 0.48617187 -5.04296875 -0.00390625 C-3 -1 -3 -1 0 0 Z " fill="#C99868" transform="translate(297,131)"/>
<path d="M0 0 C2.64 0 5.28 0 8 0 C7.67 1.32 7.34 2.64 7 4 C4.69 3.67 2.38 3.34 0 3 C0 2.01 0 1.02 0 0 Z " fill="#2E2F3E" transform="translate(275,271)"/>
<path d="M0 0 C0.66 0.66 1.32 1.32 2 2 C1.625 4.125 1.625 4.125 1 6 C-1.31 6 -3.62 6 -6 6 C-5.67 5.01 -5.34 4.02 -5 3 C-3.68 3 -2.36 3 -1 3 C-0.67 2.01 -0.34 1.02 0 0 Z " fill="#090E1D" transform="translate(422,250)"/>
<path d="M0 0 C0.99 0.33 1.98 0.66 3 1 C0.45543849 3.96865509 -2.48994665 5.3619751 -6 7 C-6.33 6.34 -6.66 5.68 -7 5 C-6.34 5 -5.68 5 -5 5 C-5.33 4.01 -5.66 3.02 -6 2 C-4.02 2 -2.04 2 0 2 C0 1.34 0 0.68 0 0 Z " fill="#DFB671" transform="translate(336,199)"/>
<path d="M0 0 C0.33 1.32 0.66 2.64 1 4 C1.99 3.67 2.98 3.34 4 3 C3.67 4.98 3.34 6.96 3 9 C2.34 9 1.68 9 1 9 C0.67 9.99 0.34 10.98 0 12 C0 8.04 0 4.08 0 0 Z " fill="#060B18" transform="translate(334,248)"/>
<path d="M0 0 C0.57234375 0.21527344 1.1446875 0.43054688 1.734375 0.65234375 C-2.765625 4.65234375 -2.765625 4.65234375 -7.265625 4.65234375 C-7.595625 5.31234375 -7.925625 5.97234375 -8.265625 6.65234375 C-8.925625 5.99234375 -9.585625 5.33234375 -10.265625 4.65234375 C-9.02618224 3.78292881 -7.77355441 2.93228918 -6.515625 2.08984375 C-5.81953125 1.61417969 -5.1234375 1.13851562 -4.40625 0.6484375 C-2.265625 -0.34765625 -2.265625 -0.34765625 0 0 Z " fill="#AF8E54" transform="translate(333.265625,156.34765625)"/>
<path d="M0 0 C2.475 0.99 2.475 0.99 5 2 C5 2.66 5 3.32 5 4 C2.03 4 -0.94 4 -4 4 C-2.68 2.68 -1.36 1.36 0 0 Z " fill="#121724" transform="translate(277,257)"/>
<path d="M0 0 C2.88437779 1.29299694 4.87219421 2.65941363 7 5 C6.67 5.99 6.34 6.98 6 8 C2.24623848 6.74874616 1.75926711 5.4347596 0 2 C0 1.34 0 0.68 0 0 Z " fill="#1C1F2D" transform="translate(392,245)"/>
<path d="M0 0 C0.66 0 1.32 0 2 0 C2.33 2.31 2.66 4.62 3 7 C0.03 6.505 0.03 6.505 -3 6 C-2.01 4.02 -1.02 2.04 0 0 Z " fill="#3E414B" transform="translate(323,240)"/>
<path d="M0 0 C2.97 0.495 2.97 0.495 6 1 C5.34 2.65 4.68 4.3 4 6 C3.34 6 2.68 6 2 6 C1.34 4.02 0.68 2.04 0 0 Z " fill="#45484F" transform="translate(197,256)"/>
<path d="M0 0 C0.94875 0.04125 1.8975 0.0825 2.875 0.125 C2.875 0.785 2.875 1.445 2.875 2.125 C1.225 2.455 -0.425 2.785 -2.125 3.125 C-2.125 3.785 -2.125 4.445 -2.125 5.125 C-2.785 5.125 -3.445 5.125 -4.125 5.125 C-4.455 4.135 -4.785 3.145 -5.125 2.125 C-3.125 0.125 -3.125 0.125 0 0 Z " fill="#0C111E" transform="translate(176.125,240.875)"/>
<path d="M0 0 C0.66 0 1.32 0 2 0 C2 0.66 2 1.32 2 2 C2.66 2 3.32 2 4 2 C4.33 1.34 4.66 0.68 5 0 C5.99 0.66 6.98 1.32 8 2 C7.67 2.99 7.34 3.98 7 5 C4.625 4.75 4.625 4.75 2 4 C0.6875 1.9375 0.6875 1.9375 0 0 Z " fill="#575862" transform="translate(272,281)"/>
<path d="M0 0 C0.33 1.32 0.66 2.64 1 4 C-0.8125 4.6875 -0.8125 4.6875 -3 5 C-4.75 3.5625 -4.75 3.5625 -6 2 C-3 0 -3 0 0 0 Z " fill="#5E666C" transform="translate(298,281)"/>
<path d="M0 0 C4 4.625 4 4.625 4 8 C3.01 8.33 2.02 8.66 1 9 C0 8 0 8 -0.09765625 6.15234375 C-0.06510417 4.1015625 -0.03255208 2.05078125 0 0 Z " fill="#3D4047" transform="translate(306,253)"/>
<path d="M0 0 C2.46800047 1.15173355 4.04783565 2.04783565 6 4 C4.0625 4.5625 4.0625 4.5625 2 5 C1.67 4.67 1.34 4.34 1 4 C0.67 4.66 0.34 5.32 0 6 C-0.66 6 -1.32 6 -2 6 C-2.33 5.01 -2.66 4.02 -3 3 C-2.01 2.01 -1.02 1.02 0 0 Z " fill="#080B19" transform="translate(322,249)"/>
<path d="M0 0 C3.73487777 0.4979837 5.81237635 0.87491756 9 3 C9.33 3.99 9.66 4.98 10 6 C6.00499382 4.6302836 3.19990508 2.74277578 0 0 Z " fill="#4D596D" transform="translate(271,209)"/>
<path d="M0 0 C0.99 0 1.98 0 3 0 C2.814375 1.093125 2.62875 2.18625 2.4375 3.3125 C1.7421932 6.93624133 1.7421932 6.93624133 3 10 C2.01 10 1.02 10 0 10 C0 6.7 0 3.4 0 0 Z " fill="#11141D" transform="translate(313,279)"/>
<path d="M0 0 C1.65 0 3.3 0 5 0 C5.33 1.32 5.66 2.64 6 4 C4.02 4 2.04 4 0 4 C0 2.68 0 1.36 0 0 Z " fill="#2A2F38" transform="translate(423,257)"/>
<path d="M0 0 C2.31 0 4.62 0 7 0 C6.67 0.99 6.34 1.98 6 3 C4.02 3 2.04 3 0 3 C0 2.01 0 1.02 0 0 Z " fill="#0D121D" transform="translate(355,258)"/>
<path d="M0 0 C0.66 0.33 1.32 0.66 2 1 C1.34 2.98 0.68 4.96 0 7 C-0.66 7 -1.32 7 -2 7 C-2.125 4.625 -2.125 4.625 -2 2 C-1.34 1.34 -0.68 0.68 0 0 Z " fill="#1E242E" transform="translate(294,276)"/>
<path d="M0 0 C0.625 1.8125 0.625 1.8125 1 4 C0.01 5.485 0.01 5.485 -1 7 C-1.66 7 -2.32 7 -3 7 C-3 5.02 -3 3.04 -3 1 C-2.01 1.33 -1.02 1.66 0 2 C0 1.34 0 0.68 0 0 Z " fill="#0E121F" transform="translate(170,248)"/>
<path d="M0 0 C0.99 0.99 1.98 1.98 3 3 C2.34 3.66 1.68 4.32 1 5 C-5.08695652 4.45652174 -5.08695652 4.45652174 -8 3 C-7 2 -7 2 -3.4375 1.9375 C-2.303125 1.958125 -1.16875 1.97875 0 2 C0 1.34 0 0.68 0 0 Z " fill="#1B1F30" transform="translate(362,242)"/>
<path d="M0 0 C-0.33 1.32 -0.66 2.64 -1 4 C-3.64 4.33 -6.28 4.66 -9 5 C-2.40909091 0 -2.40909091 0 0 0 Z " fill="#D2A67B" transform="translate(277,141)"/>
<path d="M0 0 C2 2 2 2 2.125 4.625 C2.08375 5.40875 2.0425 6.1925 2 7 C1.34 6.34 0.68 5.68 0 5 C-0.66 5.66 -1.32 6.32 -2 7 C-2.33 5.35 -2.66 3.7 -3 2 C-2.01 2 -1.02 2 0 2 C0 1.34 0 0.68 0 0 Z " fill="#868B95" transform="translate(321,275)"/>
<path d="M0 0 C2.97 0.495 2.97 0.495 6 1 C6 1.66 6 2.32 6 3 C4.35 3.66 2.7 4.32 1 5 C0.67 3.35 0.34 1.7 0 0 Z " fill="#14151D" transform="translate(285,274)"/>
<path d="M0 0 C0.66 0.33 1.32 0.66 2 1 C2 1.99 2 2.98 2 4 C1.34 4 0.68 4 0 4 C-0.33 4.99 -0.66 5.98 -1 7 C-1.33 7 -1.66 7 -2 7 C-2 5.02 -2 3.04 -2 1 C-1.34 0.67 -0.68 0.34 0 0 Z " fill="#0E1220" transform="translate(267,245)"/>
<path d="M0 0 C0.33 1.32 0.66 2.64 1 4 C-0.875 4.625 -0.875 4.625 -3 5 C-3.66 4.34 -4.32 3.68 -5 3 C-3.35 2.01 -1.7 1.02 0 0 Z " fill="#A07D5B" transform="translate(261,150)"/>
<path d="M0 0 C1.98 0.66 3.96 1.32 6 2 C5.34 3.32 4.68 4.64 4 6 C2.62437146 4.71034824 1.29233607 3.37310707 0 2 C0 1.34 0 0.68 0 0 Z " fill="#071936" transform="translate(308,137)"/>
<path d="M0 0 C0.33 0.99 0.66 1.98 1 3 C1.66 3.33 2.32 3.66 3 4 C2.34 4.66 1.68 5.32 1 6 C-1.125 5.625 -1.125 5.625 -3 5 C-2.01 3.35 -1.02 1.7 0 0 Z " fill="#161B2B" transform="translate(316,251)"/>
<path d="M0 0 C1.32 0 2.64 0 4 0 C4 1.32 4 2.64 4 4 C2.35 4 0.7 4 -1 4 C-0.67 2.68 -0.34 1.36 0 0 Z " fill="#23242E" transform="translate(342,248)"/>
<path d="" fill="#FFFFFF" transform="translate(0,0)"/>
<path d="" fill="#FFFFFF" transform="translate(0,0)"/>
<path d="" fill="#FFFFFF" transform="translate(0,0)"/>
<path d="" fill="#FFFFFF" transform="translate(0,0)"/>
<path d="" fill="#FFFFFF" transform="translate(0,0)"/>
<path d="" fill="#FFFFFF" transform="translate(0,0)"/>
<path d="" fill="#FFFFFF" transform="translate(0,0)"/>
<path d="" fill="#FFFFFF" transform="translate(0,0)"/>
<path d="" fill="#FFFFFF" transform="translate(0,0)"/>
<path d="" fill="#FFFFFF" transform="translate(0,0)"/>
<path d="" fill="#FFFFFF" transform="translate(0,0)"/>
<path d="" fill="#FFFFFF" transform="translate(0,0)"/>
<path d="" fill="#FFFFFF" transform="translate(0,0)"/>
<path d="" fill="#FFFFFF" transform="translate(0,0)"/>
<path d="" fill="#FFFFFF" transform="translate(0,0)"/>
<path d="" fill="#FFFFFF" transform="translate(0,0)"/>
<path d="" fill="#FFFFFF" transform="translate(0,0)"/>
<path d="" fill="#FFFFFF" transform="translate(0,0)"/>
<path d="" fill="#FFFFFF" transform="translate(0,0)"/>
<path d="" fill="#FFFFFF" transform="translate(0,0)"/>
<path d="" fill="#FFFFFF" transform="translate(0,0)"/>
<path d="" fill="#FFFFFF" transform="translate(0,0)"/>
<path d="" fill="#FFFFFF" transform="translate(0,0)"/>
<path d="" fill="#FFFFFF" transform="translate(0,0)"/>
<path d="" fill="#FFFFFF" transform="translate(0,0)"/>
<path d="" fill="#FFFFFF" transform="translate(0,0)"/>
<path d="" fill="#FFFFFF" transform="translate(0,0)"/>
<path d="" fill="#FFFFFF" transform="translate(0,0)"/>
<path d="" fill="#FFFFFF" transform="translate(0,0)"/>
<path d="" fill="#FFFFFF" transform="translate(0,0)"/>
<path d="" fill="#FFFFFF" transform="translate(0,0)"/>
<path d="" fill="#FFFFFF" transform="translate(0,0)"/>
<path d="" fill="#FFFFFF" transform="translate(0,0)"/>
<path d="" fill="#FFFFFF" transform="translate(0,0)"/>
<path d="" fill="#FFFFFF" transform="translate(0,0)"/>
<path d="" fill="#FFFFFF" transform="translate(0,0)"/>
<path d="" fill="#FFFFFF" transform="translate(0,0)"/>
<path d="" fill="#FFFFFF" transform="translate(0,0)"/>
<path d="" fill="#FFFFFF" transform="translate(0,0)"/>
<path d="" fill="#FFFFFF" transform="translate(0,0)"/>
<path d="" fill="#FFFFFF" transform="translate(0,0)"/>
<path d="" fill="#FFFFFF" transform="translate(0,0)"/>
<path d="" fill="#FFFFFF" transform="translate(0,0)"/>
<path d="" fill="#FFFFFF" transform="translate(0,0)"/>
<path d="" fill="#FFFFFF" transform="translate(0,0)"/>
<path d="" fill="#FFFFFF" transform="translate(0,0)"/>
<path d="" fill="#FFFFFF" transform="translate(0,0)"/>
<path d="" fill="#FFFFFF" transform="translate(0,0)"/>
<path d="" fill="#FFFFFF" transform="translate(0,0)"/>
<path d="" fill="#FFFFFF" transform="translate(0,0)"/>
<path d="" fill="#FFFFFF" transform="translate(0,0)"/>
<path d="" fill="#FFFFFF" transform="translate(0,0)"/>
<path d="" fill="#FFFFFF" transform="translate(0,0)"/>
<path d="" fill="#FFFFFF" transform="translate(0,0)"/>
<path d="" fill="#FFFFFF" transform="translate(0,0)"/>
<path d="" fill="#FFFFFF" transform="translate(0,0)"/>
<path d="" fill="#FFFFFF" transform="translate(0,0)"/>
<path d="" fill="#FFFFFF" transform="translate(0,0)"/>
<path d="" fill="#FFFFFF" transform="translate(0,0)"/>
<path d="" fill="#FFFFFF" transform="translate(0,0)"/>
<path d="" fill="#FFFFFF" transform="translate(0,0)"/>
<path d="" fill="#FFFFFF" transform="translate(0,0)"/>
<path d="" fill="#FFFFFF" transform="translate(0,0)"/>
<path d="" fill="#FFFFFF" transform="translate(0,0)"/>
<path d="" fill="#FFFFFF" transform="translate(0,0)"/>
<path d="" fill="#FFFFFF" transform="translate(0,0)"/>
<path d="" fill="#FFFFFF" transform="translate(0,0)"/>
</svg>
